<svg xmlns="http://www.w3.org/2000/svg" width="227" height="227" stroke="#000" stroke-linecap="round" stroke-linejoin="round" fill="#fff" fill-rule="evenodd"><style><![CDATA[.B{fill:#ff6c37}]]></style><g stroke="none" fill-rule="nonzero"><path d="M203.126 44.0882C175.095 7.7891 127.9565-8.0475 83.6954 3.9623S6.7646 53.4636.926 98.9527s16.3001 90.0163 56.0935 112.8155 89.4037 19.3816 125.6943-8.6601c49.5345-38.2816 58.6765-109.4684 20.4093-159.0199z" class="B"/><path d="M151.6296 72.25L103.82 120.4378l-13.5101-13.8893c47.0545-47.0541 51.7776-42.8032 61.3227-34.2985z"/><path d="M103.8203 121.7549c-.4238-.0101-.8279-.1779-1.1342-.4707l-13.6057-13.606c-.6368-.6596-.6368-1.7039 0-2.3638 46.3914-46.3912 52.7234-44.2182 63.682-34.2985.372.298.5816.7516.5677 1.2295.0706.4608-.1069.9326-.4718 1.2303L105.05 121.2872c-.3368.3088-.7727.4752-1.2297.4719zm-11.1504-15.2111l11.1504 11.1508 45.3531-45.3535c-3.2424-4.0629-9.0208-5.0385-13.4177-2.2666-8.2208 3.6844-21.4473 14.9272-43.0858 36.4693z" class="B"/><path d="M117.5221 133.7607l-13.0392-13.324 47.8086-47.2446c12.8516 12.5684-6.2357 33.5445-34.7694 60.5643z"/><path d="M117.5222 135.4611a1.989 1.989 0 0 1-1.1336-.4706l-13.3223-13.0392c-.2007-.4848-.2007-1.0294 0-1.5134-.1418-.397-.1418-.8328 0-1.2296l47.8086-47.8084c.6911-.6493 1.7643-.6493 2.4554 0 3.1362 2.8835 4.8546 6.9867 4.723 11.2426 0 12.7553-14.5515 28.8164-39.3049 52.2521-.331.3265-.7659.5279-1.2291.5665zm-10.5838-15.0232l10.6766 10.672c18.8956-17.8582 36.9444-36.2825 37.0374-48.7546a10.776 10.776 0 0 0-2.4555-7.2743z" class="B"/><path d="M90.6857 106.8311l9.4497 9.4507a.568.568 0 0 1 0 .8499l-19.9377 4.2525c-.8256.1759-1.6656-.2204-2.0623-.9644s-.2481-1.6656.3615-2.2493l11.6217-11.5268s.3792 0 .5671.1874z"/><path d="M79.7262 123.2722c-1.2804-.0166-2.4612-.6961-3.1172-1.7972-.7453-1.4064-.4791-3.1392.6614-4.2509l11.5267-11.6227c.8612-.7685 2.162-.7685 3.0221 0l9.4504 9.4507c.5596.5307.7786 1.3349.5667 2.0789s-.8356 1.3364-1.6054 1.5139l-19.9374 4.2509zm10.5834-14.3614L79.634 119.5863l17.6707-3.7803zm.8511-.8498z" class="B"/><path d="M177.0488 45.6968c-6.8391-6.5975-17.5822-6.8742-24.7535-.6486s-8.3976 16.9123-2.8137 24.6007 16.112 9.8438 24.2609 4.9608L160.892 61.7586z"/><path d="M164.2929 78.9533c-8.0323-.1032-15.2249-4.9968-18.269-12.4296s-1.3608-15.9657 4.2513-21.6775c7.8699-7.7251 20.4767-7.7251 28.3462 0 .3623.3048.5667.755.5667 1.2294a1.63 1.63 0 0 1-.5667 1.2297l-15.307 14.4562 11.6224 11.4342a1.596 1.596 0 0 1 .471 1.4175 1.7 1.7 0 0 1-.7549 1.2292c-3.1217 1.9517-6.7114 3.0285-10.3924 3.1181zm0-36.6611c-6.7328.0346-12.7557 4.085-15.2821 10.2747s-1.152 13.3154 3.5682 18.0704c4.8043 4.8297 12.0463 6.2184 18.3288 3.4975l-11.1505-11.1503c-.372-.2984-.5808-.7512-.5668-1.2297.0136-.4425.2194-.8575.5668-1.1337l14.7396-14.8359c-2.9304-2.2464-6.5123-3.472-10.204-3.4969z" class="B"/><path d="M177.3316 45.9801l-16.1569 16.061 12.8516 12.8519a19.562 19.562 0 0 0 3.5886-2.6471c7.0012-7.4403 6.8739-19.0201-.2833-26.2658z"/><path d="M173.7389 76.3104c-.43.0221-.8472-.1509-1.1339-.4707l-12.8516-12.8518c-.372-.2976-.5808-.7511-.5665-1.2306.014-.442.2197-.8571.5665-1.1332l16.0617-15.7777c.3152-.4752.8472-.7608 1.4175-.7608s1.1023.2856 1.4173.7608c3.8088 3.732 5.9555 8.8396 5.9555 14.1724a19.845 19.845 0 0 1-5.9555 14.1738c-1.1122 1.1788-2.3852 2.1964-3.7806 3.0219a1.524 1.524 0 0 1-1.1339.0959zm-10.3921-14.5487l10.6756 10.6754a18.094 18.094 0 0 0 2.0798-1.6998c3.1385-3.1296 4.9059-7.3774 4.9143-11.8101a16.227 16.227 0 0 0-4.064-10.7713z" class="B"/><path d="M153.6131 74.2345c-2.657-2.4955-6.7921-2.4955-9.4491 0l-42.7992 42.7031 7.0868 7.1814 45.2574-39.6841c1.3993-1.335 2.1821-3.1894 2.1619-5.1239s-.837-3.773-2.2578-5.0809z"/><path d="M108.0721 125.8231c-.4233-.0098-.8279-.178-1.1337-.4708l-7.1823-7.1828c-.6368-.6581-.6368-1.7041 0-2.3623l42.8019-42.6144c3.3949-3.3883 8.8941-3.3883 12.2847 0 1.7002 1.6997 2.6217 4.0206 2.5512 6.4229a8.899 8.899 0 0 1-2.9304 6.237l-45.2577 39.6843c-.3296.2332-.7336.3318-1.1337.2832zm-5.0066-8.8855l4.7227 4.8191 44.4079-38.6468c1.0985-.9573 1.7537-2.3237 1.7962-3.7803s-.5314-2.8818-1.6049-3.8732c-2.0656-2.0547-5.4-2.0547-7.4656 0z" class="B"/><path d="M68.1997 165.5989c-.2477.338-.2477.7966 0 1.1347l1.8885 8.2201c.1631.9816-.3075 1.9588-1.1761 2.4796-.8639.506-1.9542.3957-2.7-.2717l-12.9433-12.4727 40.3466-40.6657h13.9852l9.4504 9.4492c-14.7409 12.8881-31.1777 23.6975-48.8513 32.1265z"/><path d="M67.3496 179.4893c-1.07-.0216-2.126-.4607-2.8347-1.2299l-12.3768-12.3768c-.372-.2976-.5808-.7502-.5665-1.229.014-.4427.2197-.8579.5665-1.1339l40.6269-40.7224a1.594 1.594 0 0 1 .8503-.4713h14.0777a1.701 1.701 0 0 1 1.1339 0l9.4495 9.45c.3648.3369.5423.8327.4712 1.3213a1.523 1.523 0 0 1-.5666 1.2298l-.7548.6625c-14.8007 12.3385-31.0835 22.7809-48.4717 31.0849l1.7965 7.6534c.2812 1.1954.0083 2.4543-.7432 3.4262a4.079 4.079 0 0 1-3.1296 1.5804zm-11.5263-14.8357l11.1471 11.2429a.567.567 0 0 0 .7546 0c.1427-.1982.1427-.4654 0-.6626l-1.8884-8.2209c-.3048-1.2146.2835-2.4804 1.4174-3.0227 16.9206-8.1926 32.7837-18.4085 47.2418-30.425l-7.7491-7.7488h-12.66zm13.6061 1.7006z" class="B"/><path d="M43.5386 174.386l9.4502-9.4492 14.552 14.5516-23.1479-1.604c-.8148-.06-1.5061-.6381-1.7008-1.4395s.1491-1.6296.8508-2.0546z"/><path d="M67.8214 180.9058l-23.056-1.6049c-1.368-.1273-2.5441-1.0627-3.0264-2.3136s-.1874-2.7355.7583-3.7345l9.4505-9.4497c.6584-.6368 1.7045-.6368 2.3629 0l14.4569 14.4562c.4105.5669.4105 1.3253 0 1.8887-.2202.3543-.5533.6198-.9462.7544zm-23.056-5.2898l18.8961 1.2296-10.3929-9.733z" class="B"/><path d="M108.9224 125.1636l-19.0873 2.9304 11.0546-10.9588z"/><path d="M89.8346 129.8831c-.6481.0189-1.2393-.3542-1.5125-.9457-.4128-.5616-.4128-1.3271 0-1.8888l10.9589-11.0545c.6909-.6481 1.7654-.6481 2.4566 0l8.0356 8.0291a1.598 1.598 0 0 1 0 1.7005c-.1611.6337-.6786 1.1147-1.3222 1.2299l-18.8957 2.9295zm11.0559-10.2989l-6.1411 6.1395 10.5839-1.6054z" class="B"/><path d="M108.9218 125.1573l-13.3225 1.7013c-.732.1659-1.4861-.1677-1.8558-.8208s-.2679-1.4728.2516-2.0152l6.8981-6.898z"/><path d="M95.2209 128.658c-1.2583-.0108-2.4096-.6983-3.0223-1.7972-.7416-1.3281-.5104-2.9883.5669-4.0636l6.8982-6.8987c.6912-.6484 1.7648-.6484 2.4557 0l8.0324 8.0319c.488.4629.6582 1.1696.4339 1.8032s-.8016 1.0759-1.4715 1.1272l-13.2275 1.7013zm0-3.497l10.0165-1.2306-4.4398-4.4392-5.6691 5.6698zm82.2028-68.3137c-.3685-.6171-1.1402-.8612-1.7965-.5667a1.312 1.312 0 0 0-.6589.779c-.1059.337-.0709.7021.0923 1.0167.6618 1.3928.4786 3.0406-.4715 4.2526-.2475.2332-.3541.5558-.3541.8956a1.347 1.347 0 0 0 .3541.8972c.2425.0957.5125.0957.7549 0a1.241 1.241 0 0 0 1.2299-.3792c1.5875-1.944 1.9181-4.6272.8498-6.8989z" class="B"/></g></svg>